<?xml version="1.0" standalone="no"?>
<!DOCTYPE svg PUBLIC "-//W3C//DTD SVG 20010904//EN"
 "http://www.w3.org/TR/2001/REC-SVG-20010904/DTD/svg10.dtd">
<svg version="1.0" xmlns="http://www.w3.org/2000/svg"
 width="251.000000pt" height="251.000000pt" viewBox="0 0 251.000000 251.000000"
 preserveAspectRatio="xMidYMid meet">
<metadata>
Created by potrace 1.11, written by Peter Selinger 2001-2013
</metadata>
<g transform="translate(0.000000,251.000000) scale(0.100000,-0.100000)"
fill="#000000" stroke="none">
<path d="M804 1953 c-27 -129 -22 -274 16 -446 7 -35 6 -39 -17 -50 -34 -15
-54 -62 -42 -97 10 -27 63 -65 78 -56 12 8 20 -16 27 -77 10 -98 34 -155 80
-196 l43 -38 -45 -48 c-26 -26 -58 -72 -71 -102 -25 -54 -28 -76 -25 -188 l2
-60 43 -17 c23 -10 46 -18 50 -18 5 0 7 33 6 72 l-2 73 31 2 c18 1 32 -2 33
-5 1 -4 2 -42 3 -84 0 -42 4 -79 8 -83 33 -33 352 -42 433 -13 l40 15 1 74 c2
104 0 100 34 97 33 -2 33 -3 31 -91 0 -31 2 -57 6 -57 4 0 27 8 50 18 l43 17
2 60 c5 145 -17 211 -101 295 -27 27 -46 50 -41 50 5 0 23 12 40 26 36 31 69
92 75 137 2 18 7 55 11 83 5 47 9 52 35 58 81 16 95 132 18 158 -11 4 -11 16
-1 70 18 100 15 148 -14 206 -48 96 -158 150 -283 138 -36 -3 -88 -9 -116 -13
-27 -3 -96 -6 -152 -6 -135 0 -196 19 -265 84 -29 27 -53 49 -54 49 -1 0 -5
-17 -10 -37z"/>
</g>
</svg>
